# xmcd
#
# Track frame offsets:
#	150
#	14707
#	27735
#	39205
#	52460
#	71792
#	86660
#	99765
#	114902
#	124337
#	138470
#	154620
#	169110
#	183732
#	196937
#	211725
#
# Disc length: 3053 seconds
#
# Revision: 3
# Processed by: cddbd v1.5.2PL0 Copyright (c) Steve Scherf et al.
# Submitted via: audiograbber 1.83.01
#
DISCID=e50beb10
DTITLE=Andy Williams - An Evening With Andy Williams
DYEAR=1900
DGENRE=Jazz
TTITLE0=On the street where you live
TTITLE1=Kisses sweeter than wine
TTITLE2=Strangers in the night
TTITLE3=For once in my life
TTITLE4=Killing me softly with her song
TTITLE5=Secret love
TTITLE6=Feelings
TTITLE7=The long and winding road
TTITLE8=What now my love
TTITLE9=Summertime
TTITLE10=People
TTITLE11=Spanish Harlem
TTITLE12=Can't take my eyes off you
TTITLE13=Alfie
TTITLE14=Unchained melody
TTITLE15=Love is a cold wind
EXTD=
EXTT0=
EXTT1=
EXTT2=
EXTT3=
EXTT4=
EXTT5=
EXTT6=
EXTT7=
EXTT8=
EXTT9=
EXTT10=
EXTT11=
EXTT12=
EXTT13=
EXTT14=
EXTT15=
PLAYORDER=
